<svg xmlns="http://www.w3.org/2000/svg" viewBox="0 0 185.98 200"><defs><style>.cls-1{fill:#2d87c3;}</style></defs><g id="Layer_2" data-name="Layer 2"><g id="Layer_1-2" data-name="Layer 1"><path class="cls-1" d="M92,.28,3.43,49.05a2.11,2.11,0,0,0,0,3.72L50.78,77.93a2.06,2.06,0,0,0,2,0L91.94,55.43a2,2,0,0,1,2.11,0l39.1,22.47a2.08,2.08,0,0,0,2,0l47.35-25.17a2.12,2.12,0,0,0,0-3.72L94,.27a2.06,2.06,0,0,0-2,0ZM50.69,90.83,3.11,65.53a2.11,2.11,0,0,0-2.86.87,2.17,2.17,0,0,0-.25,1v84.7a2.09,2.09,0,0,0,1.09,1.85l83.13,45.79a2.11,2.11,0,0,0,2.88-.84,2.08,2.08,0,0,0,.26-1V147.44a2.16,2.16,0,0,0-1.06-1.83L52.87,126.4a2.07,2.07,0,0,1-1.06-1.83V92.69a2.09,2.09,0,0,0-1.13-1.86Zm84.6,0,47.58-25.3a2.13,2.13,0,0,1,2.87.88,2.16,2.16,0,0,1,.24,1v84.7a2.08,2.08,0,0,1-1.09,1.85l-83.13,45.79a2.11,2.11,0,0,1-2.87-.84,2.21,2.21,0,0,1-.27-1V147.45a2.11,2.11,0,0,1,1.06-1.83l33.44-19.21a2.07,2.07,0,0,0,1-1.83V92.7a2.13,2.13,0,0,1,1.13-1.87Z"/></g></g></svg>