<svg xmlns="http://www.w3.org/2000/svg" viewBox="0 0 48.84 46.37"><defs><style>.cls-1{fill:#fff;}</style></defs><g id="Layer_2" data-name="Layer 2"><g id="Layer_2-2" data-name="Layer 2"><path class="cls-1" d="M48.84,7.13A7.11,7.11,0,0,0,41.78,0H7.11A7.1,7.1,0,0,0,0,7.07c0,8,0,16.09,0,24.13a6.85,6.85,0,0,0,4.08,6.37,6.62,6.62,0,0,0,3,.68h3.74v.49c0,1.75,0,3.5,0,5.25A2.24,2.24,0,0,0,13,46.37a2.71,2.71,0,0,0,1.84-.64l9.67-7.22a1.26,1.26,0,0,1,.79-.27H41.64a7.13,7.13,0,0,0,7.2-7.18V25.94Q48.84,16.54,48.84,7.13ZM45.45,30.92a3.76,3.76,0,0,1-4,3.94H24.11a1.4,1.4,0,0,0-.74.25c-2.89,2.14-5.76,4.29-8.64,6.43l-.46.33v-7H7.4a3.77,3.77,0,0,1-4-4V7.35a3.77,3.77,0,0,1,3.93-4H41.47a3.76,3.76,0,0,1,4,4Q45.47,19.15,45.45,30.92Z"/><path class="cls-1" d="M35.64,15.25a1.63,1.63,0,0,1-1.43,1H15a2.69,2.69,0,0,1-1.19-.3,1.61,1.61,0,0,1-.69-1.88,1.67,1.67,0,0,1,1.61-1.21H34A1.68,1.68,0,0,1,35.64,15.25Z"/><path class="cls-1" d="M34.25,25.38H14.82a1.68,1.68,0,0,1-1.74-1.84A1.65,1.65,0,0,1,14.48,22a3.76,3.76,0,0,1,.58,0c3.12,0,6.24,0,9.37,0s6.34,0,9.52,0a1.67,1.67,0,0,1,1.74,1.12A1.69,1.69,0,0,1,34.25,25.38Z"/></g></g></svg>