<svg xmlns="http://www.w3.org/2000/svg" viewBox="0 0 46.53 46.32"><defs><style>.cls-1{fill:#fff;}</style></defs><g id="Layer_2" data-name="Layer 2"><g id="Layer_2-2" data-name="Layer 2"><path class="cls-1" d="M46.53,10.13V12a13,13,0,0,1-.72,2.78,17.54,17.54,0,0,1-2.58,4.05c-3,3.18-6.12,6.24-9.26,9.28a11,11,0,0,1-16.28-.78c-.5-.64-.89-1.37-1.31-2a4.93,4.93,0,0,1,5.83-1.56c.68.24,1.34.54,2,.8a4.84,4.84,0,0,0,5.45-1q4.66-4.53,9.21-9.2a4.92,4.92,0,0,0-.12-7,5,5,0,0,0-7,0c-2,1.92-4,3.91-5.93,5.91a1.1,1.1,0,0,1-1.42.28,10.63,10.63,0,0,0-6-.58,11.64,11.64,0,0,1,1-1.37c3-3,5.9-6,8.93-8.9A9.62,9.62,0,0,1,33.55.18,3.77,3.77,0,0,0,34.12,0H36.6c.2.06.39.14.59.18a10.75,10.75,0,0,1,8.65,7.18A21.56,21.56,0,0,1,46.53,10.13Z"/><path class="cls-1" d="M7.42,31.54a4.78,4.78,0,0,0-1.23,5.05A4.71,4.71,0,0,0,10.08,40a4.85,4.85,0,0,0,4.52-1.47q2.88-2.82,5.71-5.69a1,1,0,0,1,1.25-.27,12.3,12.3,0,0,0,6.83.7,25.84,25.84,0,0,1-1.69,2.07c-2.59,2.62-5.21,5.21-7.84,7.8a10.48,10.48,0,0,1-6,3,3,3,0,0,0-.47.17H9.72c-.22-.06-.44-.15-.66-.2A10.84,10.84,0,0,1,.53,38.48,21.76,21.76,0,0,1,0,36.19V34.33a17.65,17.65,0,0,1,.91-3.26A14.35,14.35,0,0,1,3.29,27.5c3-3.12,6.05-6.14,9.13-9.15A11.31,11.31,0,0,1,29.25,19c.32.39.58.83.88,1.27a6.91,6.91,0,0,1-5,2.36,1.59,1.59,0,0,1-.9-.38,5.92,5.92,0,0,0-8,.62Q11.78,27.2,7.42,31.54Z"/></g></g></svg>