<svg xmlns="http://www.w3.org/2000/svg" viewBox="0 0 48.37 39.48"><defs><style>.cls-1{fill:#fff;}</style></defs><g id="Layer_2" data-name="Layer 2"><g id="Layer_2-2" data-name="Layer 2"><path class="cls-1" d="M44.58,23.72c0,4.68,0,9.17,0,13.66a2,2,0,0,1-2,2.08c-.37,0-.75,0-1.13,0H3c-2.49,0-3-.53-3-3l0-5.78H1l0,5.79c0,.36,0,1.47.28,1.75s1.37.28,1.73.28H42.45c1-.08,1.11-.57,1.12-1.1,0-3.19,0-6.38,0-9.65V25.37"/><path class="cls-1" d="M23.3,9.51H2.4c-.84,0-1.28.24-1.31.71C1,11.94,1,13.65,1,15.47c0,.75,0,1.5,0,2.26h-1c0-2.58-.11-5.08,0-7.57C.17,9,1.23,8.51,2.41,8.51H24.53"/><path class="cls-1" d="M37.18,1.5A11.17,11.17,0,0,0,25.89,12.72,11.24,11.24,0,1,0,37.18,1.5ZM39.53,18a4.34,4.34,0,0,1-1.29.42v1.06c0,.24-.09.33-.33.33H36.43c-.2,0-.29-.09-.3-.3V18.36l-.25-.06a5.85,5.85,0,0,1-2.71-1.64l-.25-.27c-.13-.17-.13-.27,0-.42s.36-.35.54-.52l.77-.74a.54.54,0,0,1,.12-.09.29.29,0,0,1,.4,0l.44.37a3.93,3.93,0,0,0,1.41.82,2.12,2.12,0,0,0,1.27,0,.91.91,0,0,0,.66-1,.58.58,0,0,0-.19-.36,2.52,2.52,0,0,0-1-.57A14.35,14.35,0,0,1,35.3,13a4.3,4.3,0,0,1-1.51-1.3,2.94,2.94,0,0,1,1.28-4.33A9.63,9.63,0,0,1,36,7l.11,0V6c0-.29.1-.39.38-.39h1.33a.36.36,0,0,1,.4.4v.84c0,.07,0,.1.1.12A5.11,5.11,0,0,1,40.8,8.22a2.89,2.89,0,0,1,.24.25A.35.35,0,0,1,41,9c-.12.15-.26.28-.39.42l-.82.89a.36.36,0,0,1-.56,0c-.29-.22-.57-.45-.88-.64a1.92,1.92,0,0,0-1.6-.19.71.71,0,0,0-.55.52.66.66,0,0,0,.2.65,1.92,1.92,0,0,0,.71.4c.65.24,1.3.46,2,.71a5,5,0,0,1,1.34.72,2.7,2.7,0,0,1,1.13,2.23A3.39,3.39,0,0,1,39.53,18Z"/><path class="cls-1" d="M20.58,23.46a4.24,4.24,0,0,0-4.2-3.77c-5.24,0-10.48,0-15.72,0a3.58,3.58,0,0,0-.61.11v8.46a4.33,4.33,0,0,0,.58.08c5.24,0,10.48,0,15.72,0a4.29,4.29,0,0,0,4.23-4.87Zm-4.1,2.27A1.75,1.75,0,0,1,14.86,24a1.71,1.71,0,1,1,3.41,0A1.76,1.76,0,0,1,16.48,25.73Z"/><path class="cls-1" d="M25.79,6.13c-.31.16-.62.46-.93.47-7.13,0-14.25,0-21.57,0,.62-1.94,1.14-3.78,1.82-5.57C5.51,0,6.52-.23,7.92.21l12.83,4,4.9,1.54C25.7,5.89,25.74,6,25.79,6.13Z"/></g></g></svg>