<svg xmlns="http://www.w3.org/2000/svg" viewBox="0 0 180.88 64.38"><defs><style>.cls-1,.cls-3,.cls-4{fill:#fff;}.cls-2{fill:#0070ba;}.cls-3{fill-opacity:0.6;}.cls-4{fill-opacity:0.8;}</style></defs><g id="Layer_2" data-name="Layer 2"><g id="Layer_2-2" data-name="Layer 2"><path class="cls-1" d="M73.68,40.58V15.51h9.37a9.93,9.93,0,0,1,4.84,1.08,7.12,7.12,0,0,1,3,2.95,8.88,8.88,0,0,1,1,4.26,8.79,8.79,0,0,1-1,4.28,7.33,7.33,0,0,1-3,2.94A10.09,10.09,0,0,1,83,32.1H76.77V28.4h5.62a5.89,5.89,0,0,0,2.79-.59,3.7,3.7,0,0,0,1.59-1.64,5.17,5.17,0,0,0,.52-2.37,5.08,5.08,0,0,0-.52-2.35,3.54,3.54,0,0,0-1.6-1.6,6.08,6.08,0,0,0-2.81-.57H78.17v21.3Z"/><path class="cls-1" d="M100.65,41a7.75,7.75,0,0,1-3.22-.64,5.25,5.25,0,0,1-2.25-1.91,5.6,5.6,0,0,1-.83-3.12,5.26,5.26,0,0,1,.6-2.64A4.6,4.6,0,0,1,96.57,31,8.12,8.12,0,0,1,98.86,30a18.68,18.68,0,0,1,2.66-.45c1.09-.12,2-.23,2.66-.32a3.89,3.89,0,0,0,1.5-.44,1,1,0,0,0,.48-.94v-.08a3.13,3.13,0,0,0-.37-1.58,2.37,2.37,0,0,0-1.1-1,4.24,4.24,0,0,0-1.81-.34,4.91,4.91,0,0,0-1.89.33,3.77,3.77,0,0,0-1.3.88A3.31,3.31,0,0,0,99,27.27l-4.06-.83a6.49,6.49,0,0,1,1.72-2.75,7.43,7.43,0,0,1,2.77-1.62,10.87,10.87,0,0,1,3.49-.54,11.8,11.8,0,0,1,2.68.31A7.7,7.7,0,0,1,108,22.89a5.63,5.63,0,0,1,1.82,2,6.39,6.39,0,0,1,.69,3.13V40.58h-4.19V38h-.17A5.77,5.77,0,0,1,105,39.46a5.55,5.55,0,0,1-1.82,1.09A7.09,7.09,0,0,1,100.65,41Zm1.12-3.24a4.83,4.83,0,0,0,2.35-.54,4,4,0,0,0,1.53-1.42,3.64,3.64,0,0,0,.55-1.93V31.61a2.43,2.43,0,0,1-.73.32c-.35.1-.73.19-1.15.27s-.83.14-1.24.2l-1,.13a8,8,0,0,0-1.76.44,2.92,2.92,0,0,0-1.24.85,2.44,2.44,0,0,0,0,2.78,2.58,2.58,0,0,0,1.12.83A4.44,4.44,0,0,0,101.77,37.72Z"/><path class="cls-1" d="M114.42,47.29l1-3.42L116,44a4.63,4.63,0,0,0,1.77.14,2.13,2.13,0,0,0,1.3-.67,3.47,3.47,0,0,0,.74-1.64l.26-1.2-7.1-18.87h4.68L121.05,32a33,33,0,0,1,1,3.61c.25,1.2.54,2.43.85,3.69h-1.14c.3-1.26.61-2.49.91-3.7s.66-2.4,1.06-3.6l3.55-10.23h4.63L123.83,43a9.37,9.37,0,0,1-1.43,2.56,5.49,5.49,0,0,1-2.1,1.63,7.19,7.19,0,0,1-3,.55,10.24,10.24,0,0,1-1.71-.13A6.17,6.17,0,0,1,114.42,47.29Z"/><path class="cls-1" d="M134.88,47.61V21.77h4.28v3.11h.28a9,9,0,0,1,1-1.45,5.54,5.54,0,0,1,1.69-1.34,5.93,5.93,0,0,1,2.74-.56,7.18,7.18,0,0,1,3.93,1.11,7.66,7.66,0,0,1,2.79,3.27,12.25,12.25,0,0,1,1,5.3,12.31,12.31,0,0,1-1,5.26,7.64,7.64,0,0,1-2.76,3.31,7.29,7.29,0,0,1-4,1.13,6,6,0,0,1-2.68-.54,5.44,5.44,0,0,1-1.71-1.32,8.05,8.05,0,0,1-1-1.45h-.18v10Zm8.75-10.3a3.75,3.75,0,0,0,2.46-.8,4.9,4.9,0,0,0,1.5-2.18,9.36,9.36,0,0,0,.5-3.14,9.12,9.12,0,0,0-.5-3.12,4.72,4.72,0,0,0-1.48-2.16,4.31,4.31,0,0,0-4.92,0,4.62,4.62,0,0,0-1.5,2.11,8.82,8.82,0,0,0-.52,3.19,9,9,0,0,0,.52,3.21,4.64,4.64,0,0,0,1.51,2.15A3.89,3.89,0,0,0,143.63,37.31Z"/><path class="cls-1" d="M162,41a7.7,7.7,0,0,1-3.21-.64,5.22,5.22,0,0,1-2.26-1.91,5.6,5.6,0,0,1-.82-3.12,5.26,5.26,0,0,1,.6-2.64A4.5,4.5,0,0,1,157.89,31a8.31,8.31,0,0,1,2.3-.95,18.68,18.68,0,0,1,2.66-.45c1.08-.12,2-.23,2.65-.32a3.89,3.89,0,0,0,1.51-.44,1,1,0,0,0,.48-.94v-.08a3.13,3.13,0,0,0-.37-1.58,2.42,2.42,0,0,0-1.1-1,4.24,4.24,0,0,0-1.81-.34,4.91,4.91,0,0,0-1.89.33,3.82,3.82,0,0,0-1.31.88,3.46,3.46,0,0,0-.74,1.16l-4.05-.83a6.57,6.57,0,0,1,1.71-2.75,7.59,7.59,0,0,1,2.77-1.62,10.87,10.87,0,0,1,3.49-.54,11.88,11.88,0,0,1,2.69.31,7.8,7.8,0,0,1,2.48,1.05,5.61,5.61,0,0,1,1.81,2,6.39,6.39,0,0,1,.69,3.13V40.58h-4.19V38h-.16a5.82,5.82,0,0,1-1.16,1.47,5.4,5.4,0,0,1-1.81,1.09A7.14,7.14,0,0,1,162,41Zm1.13-3.24a4.76,4.76,0,0,0,2.34-.54A4.15,4.15,0,0,0,167,35.76a3.63,3.63,0,0,0,.54-1.93V31.61a2.32,2.32,0,0,1-.73.32q-.51.15-1.14.27c-.42.08-.84.14-1.25.2l-1,.13a8.19,8.19,0,0,0-1.77.44,2.92,2.92,0,0,0-1.24.85,2.23,2.23,0,0,0-.44,1.42,2.18,2.18,0,0,0,.41,1.36,2.55,2.55,0,0,0,1.13.83A4.36,4.36,0,0,0,163.1,37.72Z"/><path class="cls-1" d="M180.88,15.51V40.58h-4.37V15.51Z"/><circle class="cls-2" cx="32.19" cy="32.19" r="32.19"/><path class="cls-3" d="M45.6,22.69c0,.23-.08.46-.12.71-1.59,8.13-7,10.93-13.92,10.93H28a1.73,1.73,0,0,0-1.69,1.45l-1.8,11.44L24,50.46a.91.91,0,0,0,.89,1h6.25a1.5,1.5,0,0,0,1.48-1.27l.06-.32,1.18-7.46.08-.41a1.49,1.49,0,0,1,1.48-1.27h.93c6.06,0,10.8-2.46,12.18-9.57.58-3,.28-5.46-1.25-7.2A6,6,0,0,0,45.6,22.69Z"/><path class="cls-4" d="M43.94,22l-.74-.19c-.26-.06-.53-.11-.8-.15a18.8,18.8,0,0,0-3.1-.23H29.89a1.38,1.38,0,0,0-.65.15,1.5,1.5,0,0,0-.84,1.12l-2,12.68-.06.37A1.72,1.72,0,0,1,28,34.33h3.53c6.92,0,12.33-2.81,13.92-10.93,0-.25.08-.48.12-.71a9.58,9.58,0,0,0-1.3-.55Z"/><path class="cls-1" d="M28.4,22.73a1.5,1.5,0,0,1,.84-1.12,1.55,1.55,0,0,1,.65-.15H39.3a20,20,0,0,1,3.1.23c.27,0,.54.09.8.15l.74.19.36.11a9.07,9.07,0,0,1,1.3.55c.47-3,0-5.05-1.63-6.9-1.79-2-5-2.91-9.16-2.91h-12a1.71,1.71,0,0,0-1.7,1.45l-5,31.7a1,1,0,0,0,1,1.19h7.41L26.4,35.41Z"/></g></g></svg>