<svg xmlns="http://www.w3.org/2000/svg" viewBox="0 0 207.64 48.65"><defs><style>.cls-1{fill:#fedc01;}.cls-2{fill:#fff;}</style></defs><g id="Layer_2" data-name="Layer 2"><g id="Layer_2-2" data-name="Layer 2"><path class="cls-1" d="M85.17,14.46Q80.93,21.74,76.74,29c-2.11,3.64-4.18,7.3-6.3,10.92a53.5,53.5,0,0,1-3.16,5,8.29,8.29,0,0,1-6.36,3.65,6.88,6.88,0,0,1-4.12-1.23,13.68,13.68,0,0,1-4.28-4.82c-2.51-4.35-5-8.7-7.55-13.06C43,26,41,22.5,39,19L31.33,5.78c-1-1.78-2-3.55-3.08-5.33-.06-.11-.1-.23-.2-.44h.78C35.37,0,41.9,0,48.44,0a.93.93,0,0,1,.93.53q3.48,6.07,7,12.15,4,6.93,8,13.85a3.87,3.87,0,0,0,6.6.28.62.62,0,0,0,.07-.77q-3.89-6.75-7.75-13.52L56.52.64c-.1-.17-.18-.34-.3-.58.21,0,.36,0,.51,0h20a.73.73,0,0,1,.73.41q3.83,6.69,7.68,13.37A.57.57,0,0,1,85.17,14.46Z"/><path class="cls-1" d="M42.94,38.79c-1.33,2.19-2.38,4.55-4,6.52a8.31,8.31,0,0,1-6.12,3.26,7.26,7.26,0,0,1-4.49-1.51,14.37,14.37,0,0,1-4.08-4.85L18.29,31.9,10.34,18l-7-12.24C2.34,4.06,1.37,2.35.39.65.29.46.17.28,0,0H20.54a.75.75,0,0,1,.79.45c2.11,3.72,4.24,7.43,6.36,11.13Q31,17.4,34.34,23.19q3.73,6.49,7.44,13c.38.67.78,1.34,1.13,2A.68.68,0,0,1,42.94,38.79Z"/><path class="cls-2" d="M122.71,0c-.37,1.4-.74,2.76-1.11,4.13l-4.53,16.61c-.14.52-.27,1-.46,1.56a.59.59,0,0,1-.43.32c-1.2,0-2.39,0-3.59,0a.45.45,0,0,1-.52-.41c-.84-3.41-1.72-6.81-2.54-10.23-.44-1.82-.8-3.66-1.21-5.49,0-.08-.07-.14-.17-.34-.11.5-.19.87-.28,1.25-.67,2.77-1.33,5.54-2,8.31-.54,2.11-1.15,4.21-1.7,6.32-.11.44-.28.61-.76.59-1.08-.05-2.17,0-3.26,0-.34,0-.47-.09-.56-.42-1-3.57-1.93-7.13-2.9-10.69-.78-2.89-1.55-5.78-2.33-8.67C94.07,1.93,93.81,1,93.55,0H97.7c.74,2.85,1.47,5.67,2.19,8.5s1.4,5.67,2.11,8.53c1.39-5.69,2.79-11.35,4.18-17h4.22c1.4,5.62,2.81,11.24,4.17,16.68,1.35-5.44,2.75-11.06,4.15-16.68Z"/><path class="cls-2" d="M113.45,38.36a12.33,12.33,0,0,1-1.16,5.73,8,8,0,0,1-6.8,4.39,9.91,9.91,0,0,1-5.72-1,8.15,8.15,0,0,1-4.2-6.11,16.81,16.81,0,0,1-.24-2.74c0-4.2,0-8.4,0-12.6,0-.11,0-.21,0-.37h3.94v.57c0,4.09,0,8.18,0,12.27a11.15,11.15,0,0,0,.38,3c.74,2.55,2.64,3.48,5,3.34a4.61,4.61,0,0,0,4.61-4.38,16.62,16.62,0,0,0,.13-2q0-6.1,0-12.21v-.6h4c0,.2,0,.38,0,.55C113.45,30.26,113.46,34.31,113.45,38.36Z"/><path class="cls-2" d="M175.84,17.4a5.21,5.21,0,0,1-7.39,1.25,4.07,4.07,0,0,1-1.6-2.88h12.84c0-.79,0-1.51-.11-2.23-.38-4.07-3.16-7.35-7.1-7.77a8.12,8.12,0,0,0-6.8,2.1A8.82,8.82,0,0,0,163,15.61a7.86,7.86,0,0,0,2.7,5.26,9.26,9.26,0,0,0,10.67.72,7.09,7.09,0,0,0,2.77-3c-.92-.46-1.81-.88-2.68-1.35C176.15,17,176,17.12,175.84,17.4ZM171.39,9c2.37.07,4.36,1.75,4.21,3.57h-8.7A4.12,4.12,0,0,1,171.39,9Z"/><path class="cls-2" d="M133.76,17.49a5.18,5.18,0,0,1-7.61.91,3.93,3.93,0,0,1-1.31-2.65h12.87c-.07-.93-.08-1.82-.21-2.68a8.67,8.67,0,0,0-2-4.56,8.45,8.45,0,0,0-9.58-2,7.84,7.84,0,0,0-4.58,5.18,8.41,8.41,0,0,0,1.83,8.62,8.91,8.91,0,0,0,11.13,1.34,7.18,7.18,0,0,0,2.81-3.06c-.91-.45-1.75-.85-2.58-1.29C134.19,17.06,134,17.11,133.76,17.49ZM129.3,8.91c2.42,0,4.37,1.51,4.42,3.55h-8.65C125.08,10.6,127.08,8.93,129.3,8.91Z"/><path class="cls-2" d="M149.06,31.3c-5.39-.29-9.44,3.37-9.52,8.48a8.34,8.34,0,0,0,8,8.83c5.46.43,9.42-3.31,9.5-8.35A8.52,8.52,0,0,0,149.06,31.3Zm-.81,13.63a5.07,5.07,0,0,1,.06-10.14,4.86,4.86,0,0,1,4.94,5.11A4.85,4.85,0,0,1,148.25,44.93Z"/><path class="cls-2" d="M207.63,22.51h-4.07c0-2.93,0-5.82,0-8.72a10.49,10.49,0,0,0-.15-1.77C203,9.67,201.09,8.83,199,9.17a3.6,3.6,0,0,0-3.07,3.49c-.13,1.35-.08,2.71-.09,4.07,0,1.75,0,3.51,0,5.26,0,.2,0,.39,0,.63h-3.94V6.05h3.33V8.32c.17-.19.25-.26.32-.35a5.66,5.66,0,0,1,3.35-2,7.57,7.57,0,0,1,5.37.57,6.36,6.36,0,0,1,3.2,4.63,19.67,19.67,0,0,1,.2,4.12C207.65,17.66,207.63,20.07,207.63,22.51Z"/><path class="cls-2" d="M174.53,48.12h-3.94v-.88c0-2.91,0-5.81,0-8.72A3.47,3.47,0,0,0,168.39,35c-2.2-.81-4.94,0-5.44,3.05a8.9,8.9,0,0,0-.12,1.46c0,2.71,0,5.42,0,8.14v.6h-3.93V31.64h3.31v2.18c.47-.44.84-.85,1.26-1.18,2.41-1.88,7.32-2,9.64.94a6.53,6.53,0,0,1,1.41,4C174.56,41.07,174.53,44.56,174.53,48.12Z"/><path class="cls-2" d="M131.42,48.12h-3.95V47.5c0-3,0-5.9,0-8.85a4.08,4.08,0,0,0-1-2.9A3.91,3.91,0,0,0,120,37.33a8.15,8.15,0,0,0-.29,2.08c0,2.73,0,5.47,0,8.2v.61h-3.91V31.64h3.34v2.07a6.51,6.51,0,0,1,2.52-1.81c2.76-1,5.41-.94,7.72,1.1a6.27,6.27,0,0,1,2,4.74C131.47,41.18,131.42,44.61,131.42,48.12Z"/><path class="cls-2" d="M150.36,21.9c-2.81,1.74-7.7,1.27-10.05-1A3.86,3.86,0,0,1,139,17.75l3.51-.67a2.74,2.74,0,0,0,1.07,2,4.76,4.76,0,0,0,4.54.27,1.35,1.35,0,0,0,0-2.47,30.59,30.59,0,0,0-3.29-1.18,28.57,28.57,0,0,1-3.12-1.18,4.32,4.32,0,0,1-.78-7.09,7.46,7.46,0,0,1,9.9.44,4.84,4.84,0,0,1,1.26,3.27c-1.07.19-2.12.39-3.17.54-.11,0-.33-.17-.36-.29A3,3,0,0,0,144,9.23a1.36,1.36,0,0,0-.84,1.22,1.21,1.21,0,0,0,.83,1.22c1,.38,1.94.66,2.91,1s2.08.62,3.06,1.06a4.21,4.21,0,0,1,2.72,3.84A4.53,4.53,0,0,1,150.36,21.9Z"/><path class="cls-2" d="M162,19.47v3.2a10.1,10.1,0,0,1-4.13.13,3,3,0,0,1-2.2-2.89c-.05-1.72,0-3.44,0-5.16s0-3.65,0-5.52h-1.85V6h1.85V2.22l3.67-.89V5.88H162v3.2h-2.52c0,.24,0,.41,0,.59V18.3c0,1,.29,1.26,1.27,1.25C161.13,19.54,161.54,19.5,162,19.47Z"/><path class="cls-2" d="M190.18,6v3.4c-.58,0-1.13,0-1.68,0a3,3,0,0,0-3.25,3.35c0,3.09,0,6.18,0,9.28,0,.48-.13.61-.62.59-.94-.05-1.89,0-2.83,0-.3,0-.47,0-.47-.41q0-8.06,0-16.12l.05-.08h3.25V7.8A5.62,5.62,0,0,1,190.18,6Z"/><path class="cls-2" d="M137.69,31.6V48.24c-1.2,0-2.37,0-3.54,0-.11,0-.22-.21-.3-.34s0-.18,0-.27q0-7.71,0-15.42c0-.46.09-.63.59-.61C135.5,31.63,136.59,31.6,137.69,31.6Z"/><path class="cls-2" d="M138.13,27.76a2.21,2.21,0,0,1-2.29,2.11,2.17,2.17,0,0,1-2.29-2.16,2.25,2.25,0,0,1,2.31-2.29A2.44,2.44,0,0,1,138.13,27.76Z"/></g></g></svg>